<?xml version="1.0" encoding="iso-8859-1"?>
<!-- Generator: Adobe Illustrator 19.0.0, SVG Export Plug-In . SVG Version: 6.00 Build 0)  -->
<svg xmlns="http://www.w3.org/2000/svg" xmlns:xlink="http://www.w3.org/1999/xlink" version="1.1" id="Layer_1" x="0px" y="0px" viewBox="0 0 512 512" style="enable-background:new 0 0 512 512;" xml:space="preserve" width="512" height="512">
<g>
	<path d="M135,130c35.841,0,65-29.159,65-65S170.841,0,135,0S70,29.159,70,65S99.159,130,135,130z M135,30c19.299,0,35,15.701,35,35   s-15.701,35-35,35s-35-15.701-35-35S115.701,30,135,30z"/>
	<path d="M0,235v90c0,24.813,20.187,45,45,45c5.257,0,10.307-0.906,15-2.57V512h150V160H75C33.645,160,0,193.645,0,235z M180,482   h-30V334h-30v148H90V229H60v96c0,8.271-6.729,15-15,15s-15-6.729-15-15v-90c0-24.813,20.187-45,45-45h45v99h30v-99h30V482z"/>
	<path d="M377,130c35.841,0,65-29.159,65-65S412.842,0,377,0s-65,29.159-65,65S341.159,130,377,130z M377,30   c19.299,0,35,15.701,35,35s-15.701,35-35,35s-35-15.701-35-35S357.702,30,377,30z"/>
	<path d="M437,160H302l0,352h150V367.43c4.693,1.664,9.743,2.57,15,2.57c24.813,0,45-20.187,45-45v-90   C512,193.645,478.355,160,437,160z M482,325c0,8.271-6.729,15-15,15s-15-6.729-15-15v-96h-30v253h-30l0-148h-30l0,148h-30l0-292h30   v99h30v-99h45c24.813,0,45,20.187,45,45V325z"/>
	<rect x="241" width="30" height="60.333"/>
	<rect x="241" y="90.333" width="30" height="60.334"/>
	<rect x="241" y="180.667" width="30" height="60.333"/>
	<rect x="241" y="271" width="30" height="60.333"/>
	<rect x="241" y="361.333" width="30" height="60.334"/>
	<rect x="241" y="451.667" width="30" height="60.333"/>
</g>















</svg>
